<svg xmlns="http://www.w3.org/2000/svg" width="110" height="91">
  <defs>
    <linearGradient id="a" x1="0%" x2="48.48%" y1="0%" y2="87.46%">
      <stop offset="0%" stop-color="rgb(14,14,17)"/>
      <stop offset="100%" stop-color="rgb(62,64,75)"/>
    </linearGradient>
  </defs>
  <path fill-rule="evenodd" fill="url(#a)" d="M3.24 4.16h102.8v64.3H3.25V4.16z"/>
  <path fill-rule="evenodd" fill="rgb(255, 255, 255)" d="M49.41 29.3c-.2 0-.4.04-.57.14-.38.22-.62.62-.62 1.06l-.02 16.87c0 .44.24.84.62 1.05a1.18 1.18 0 001.2-.03l13.7-8.43a1.21 1.21 0 000-2.05l-13.68-8.43c-.19-.13-.4-.19-.63-.19z"/>
  <path fill-rule="evenodd" fill="rgb(98, 102, 113)" d="M102.48 73.63h-44.4v10.4h17.08a3.44 3.44 0 013.41 3.46 3.44 3.44 0 01-3.41 3.46h-41a3.44 3.44 0 01-3.41-3.46c0-1.9 1.53-3.46 3.41-3.46h17.08v-10.4H6.84A6.9 6.9 0 010 66.72V7.89A6.9 6.9 0 016.83.97h95.65a6.9 6.9 0 016.83 6.92v58.83a6.9 6.9 0 01-6.83 6.91zm0-65.74H6.83v58.83h95.65V7.89z"/>
</svg>
