<svg
 xmlns="http://www.w3.org/2000/svg"
 xmlns:xlink="http://www.w3.org/1999/xlink"
 width="74px" height="90px">
<defs>
<linearGradient id="PSgrad_0" x1="0%" x2="20.791%" y1="0%" y2="97.815%">
  <stop offset="0%" stop-color="rgb(15,16,18)" stop-opacity="1" />
  <stop offset="100%" stop-color="rgb(59,64,74)" stop-opacity="1" />
</linearGradient>

</defs>
<path fill-rule="evenodd"  fill="url(#PSgrad_0)"
 d="M37.323,0.009 C36.239,0.009 35.151,0.325 34.209,0.954 C33.982,1.106 27.242,8.334 20.646,9.957 C16.330,11.020 11.682,11.180 9.349,11.180 C7.938,11.180 7.037,11.124 6.950,11.120 C6.826,11.111 6.703,11.106 6.580,11.106 C5.161,11.106 3.786,11.646 2.743,12.623 C1.609,13.686 0.962,15.170 0.962,16.726 L0.962,30.781 C0.962,82.742 34.891,89.435 36.332,89.695 C36.660,89.753 36.992,89.783 37.323,89.783 C37.654,89.783 37.988,89.753 38.315,89.695 C39.755,89.435 73.933,82.742 73.933,30.781 L73.933,16.726 C73.933,15.168 73.287,13.681 72.150,12.617 C71.110,11.644 69.740,11.106 68.324,11.106 C68.195,11.106 68.066,11.111 67.938,11.120 C67.858,11.124 66.957,11.180 65.547,11.180 C63.210,11.180 58.651,11.020 54.331,9.957 C48.752,8.583 42.313,2.212 40.440,0.956 C39.498,0.325 38.410,0.009 37.323,0.009 L37.323,0.009 Z"/>
<path fill-rule="evenodd"  fill="rgb(255, 255, 255)"
 d="M48.273,39.226 L35.055,55.451 C35.028,55.491 35.017,55.540 34.986,55.577 C34.472,56.205 33.637,56.205 33.123,55.577 L26.598,47.618 C26.084,46.990 26.084,45.972 26.598,45.343 C27.113,44.715 27.948,44.715 28.462,45.343 L34.034,52.142 L46.409,36.951 C46.924,36.323 47.758,36.323 48.273,36.951 C48.788,37.579 48.788,38.598 48.273,39.226 Z"/>
<path fill-rule="evenodd"  fill="rgb(98, 102, 113)"
 d="M37.323,5.630 C37.323,5.630 45.233,13.504 52.992,15.414 C57.741,16.583 62.605,16.801 65.547,16.801 C67.261,16.801 68.324,16.726 68.324,16.726 C68.324,16.726 68.324,18.514 68.324,30.781 C68.324,78.640 37.323,84.162 37.323,84.162 C37.323,84.162 6.571,78.640 6.571,30.781 C6.571,18.514 6.571,16.726 6.571,16.726 C6.571,16.726 7.631,16.801 9.349,16.801 C12.290,16.801 17.239,16.583 21.983,15.414 C29.750,13.504 37.323,5.630 37.323,5.630 M37.323,0.009 C36.239,0.009 35.151,0.325 34.209,0.954 C33.982,1.106 27.242,8.334 20.646,9.957 C16.330,11.020 11.682,11.180 9.349,11.180 C7.938,11.180 7.037,11.124 6.950,11.120 C6.826,11.111 6.703,11.106 6.580,11.106 C5.161,11.106 3.786,11.646 2.743,12.623 C1.609,13.686 0.962,15.170 0.962,16.726 L0.962,30.781 C0.962,82.742 34.891,89.435 36.332,89.695 C36.660,89.753 36.992,89.783 37.323,89.783 C37.654,89.783 37.988,89.753 38.315,89.695 C39.755,89.435 73.933,82.742 73.933,30.781 L73.933,16.726 C73.933,15.168 73.287,13.681 72.150,12.617 C71.110,11.644 69.740,11.106 68.324,11.106 C68.195,11.106 68.066,11.111 67.938,11.120 C67.858,11.124 66.957,11.180 65.547,11.180 C63.210,11.180 58.651,11.020 54.331,9.957 C48.752,8.583 42.313,2.212 40.440,0.956 C39.498,0.325 38.410,0.009 37.323,0.009 L37.323,0.009 Z"/>
</svg>
