<svg xmlns="http://www.w3.org/2000/svg" width="35" height="45">
  <path fill-rule="evenodd" fill="rgb(79, 84, 97)" d="M17.45.01a2.6 2.6 0 00-1.5.48c-.1.07-3.33 3.7-6.5 4.5-2.07.54-4.3.62-5.41.62-.68 0-1.11-.03-1.15-.03H2.7c-.68 0-1.34.27-1.84.75A2.88 2.88 0 00.02 8.4v7.04c0 26.04 16.27 29.39 16.96 29.52a2.63 2.63 0 00.95 0C18.62 44.82 35 41.47 35 15.43V8.4c0-.78-.31-1.53-.86-2.06a2.63 2.63 0 00-2.02-.75c-.03 0-.47.03-1.14.03-1.12 0-3.31-.08-5.38-.61-2.68-.69-5.77-3.88-6.66-4.51a2.6 2.6 0 00-1.5-.47z"/>
</svg>
