<svg xmlns="http://www.w3.org/2000/svg" width="91" height="90">
  <defs>
    <linearGradient id="a" x1="0%" x2="0%" y1="100%" y2="0%">
      <stop offset="0%" stop-color="rgb(57,61,71)"/>
      <stop offset="100%" stop-color="rgb(17,18,21)"/>
    </linearGradient>
  </defs>
  <path fill-rule="evenodd" fill="url(#a)" d="M45.99.02C33.56.02 20.64 10.4 20.64 19.71v14.06c0 6.14 2.8 18.57 10.68 24.89L6.59 70.32S.97 72.82.97 75.95v8.44c0 3.1 2.52 5.63 5.62 5.63h78.8A5.62 5.62 0 0091 84.39v-8.44c0-3.31-5.63-5.63-5.63-5.63l-24.5-11.6c7.8-6.14 10.44-18.2 10.44-24.95V19.7c0-9.32-12.9-19.69-25.33-19.69z"/>
  <path fill-rule="evenodd" fill="rgb(98, 102, 113)" d="M45.99 5.65c9.56 0 19.7 8.05 19.7 14.06v14.06c0 5.41-2.25 15.77-8.3 20.52a5.63 5.63 0 001.14 9.53l24.5 11.62c.2.08 2.35.45 2.35 3.45v5.5H6.6v-5.7c0-2.25 1.68-2.95 2.35-3.26l24.72-11.66a5.62 5.62 0 001.17-9.5c-5.84-4.69-8.57-15-8.57-20.5V19.7c0-5.88 10.24-14.06 19.72-14.06m0-5.63C33.56.02 20.64 10.4 20.64 19.71v14.06c0 6.14 2.8 18.57 10.68 24.89L6.59 70.32S.97 72.82.97 75.95v8.44c0 3.1 2.52 5.63 5.62 5.63h78.8A5.62 5.62 0 0091 84.39v-8.44c0-3.31-5.63-5.63-5.63-5.63l-24.5-11.6c7.8-6.14 10.44-18.2 10.44-24.95V19.7c0-9.32-12.9-19.69-25.33-19.69z"/>
</svg>
