<svg xmlns="http://www.w3.org/2000/svg" width="25" height="18">
  <path fill-rule="evenodd" fill="rgb(255, 255, 255)" d="M22.95 16.86c-.67.49-2.56 1.13-10.46 1.13-8.48 0-9.73-.73-10.13-.98C.26 15.76.02 10.67 0 9.14.01 8 .22 2.28 2.36 1 2.76.75 4.02.01 12.5.01c7.9 0 9.78.64 10.46 1.13 1.88 1.35 2.04 6.46 2.04 7.98 0 1.9-.21 6.43-2.04 7.74zm-.91-14.45c-.28-.2-1.84-.84-9.55-.84-7.46 0-9.03.58-9.32.76-.75.45-1.55 3.13-1.61 6.8.06 3.7.85 6.1 1.6 6.54.3.18 1.87.76 9.33.76 7.71 0 9.28-.64 9.55-.83.66-.48 1.38-2.7 1.4-6.47-.02-3.7-.73-6.24-1.4-6.72zm-10.9 9.17a.53.53 0 01-.49 0 .4.4 0 01-.24-.35V6.76c0-.15.1-.29.24-.36a.54.54 0 01.48 0l4.26 2.25c.14.07.23.2.23.34a.4.4 0 01-.23.35l-4.26 2.24z"/>
</svg>
